<svg width="692" height="692" viewBox="0 0 692 692" fill="none" xmlns="http://www.w3.org/2000/svg">
<path d="M482.982 0H208.784C93.4759 0 0 93.4756 0 208.784V482.981C0 598.289 93.4759 691.765 208.784 691.765H482.982C598.29 691.765 691.766 598.289 691.766 482.981V208.784C691.766 93.4756 598.29 0 482.982 0Z" fill="#416EF5"/>
<path d="M301.252 423.101V173.854C301.252 168.9 297.25 164.897 292.296 164.897H232.171C227.218 164.886 223.215 168.9 223.215 173.854V423.135C223.215 481.436 270.485 528.705 328.786 528.705H475.683C480.636 528.705 484.639 524.703 484.639 519.749V459.602C484.639 454.648 480.636 450.646 475.683 450.646H328.786C313.58 450.646 301.252 438.318 301.252 423.112V423.101Z" fill="white"/>
</svg>
