<svg width="1578" height="796" viewBox="0 0 1578 796" fill="none" xmlns="http://www.w3.org/2000/svg">
<g clip-path="url(#clip0_443_223)">
<path d="M424.69 580.2V643.91H410.07V555.21H423.45L454.44 597.19L485.56 555.21H498.94V643.91H484.2V580.32L454.59 620.56L424.73 580.2H424.69Z" fill="#416EF5"/>
<path d="M520.65 555.21H574V569.2H535.26V591.94H566.5V605.93H535.26V629.91H574V643.89H520.65V555.19V555.21Z" fill="#416EF5"/>
<path d="M618.11 630.31C637.1 630.31 649.71 616.95 649.71 599.58C649.71 582.21 637.1 568.85 618.11 568.85H605.5V630.31H618.11ZM590.88 555.21H618.12C644.47 555.21 664.6 574.45 664.6 599.56C664.6 624.67 644.49 643.91 618.12 643.91H590.88V555.21Z" fill="#416EF5"/>
<path d="M695.33 555.21H680.72V643.91H695.33V555.21Z" fill="#416EF5"/>
<path d="M757.69 553.73C779.06 553.73 796.16 567.6 800.42 584.97H784.67C780.92 574.86 770.18 567.86 757.69 567.86C739.2 567.86 726.21 581.73 726.21 599.6C726.21 617.47 739.2 631.32 757.69 631.32C770.18 631.32 780.92 624.33 784.67 614.21H800.42C796.16 631.58 779.06 645.45 757.69 645.45C731.34 645.45 711.47 625.46 711.47 599.6C711.47 573.74 731.34 553.75 757.69 553.75V553.73Z" fill="#416EF5"/>
<path d="M829.79 555.21H815.18V643.91H829.79V555.21Z" fill="#416EF5"/>
<path d="M916.12 643.91L866.16 580.06V643.91H851.54V555.21H864.29L914.14 618.8V555.21H928.87V643.91H916.12Z" fill="#416EF5"/>
<path d="M999.48 607.69L985.23 574.83L970.98 607.69H999.48ZM978.98 555.21H991.73L1030.47 643.91H1015.23L1005.12 620.68H965.39L955.4 643.91H940.28L979.02 555.21H979H978.98Z" fill="#416EF5"/>
<path d="M437.32 780.25C456.31 780.25 468.92 766.89 468.92 749.52C468.92 732.15 456.31 718.79 437.32 718.79H424.71V780.25H437.32ZM410.07 705.17H437.31C463.66 705.17 483.79 724.41 483.79 749.52C483.79 774.63 463.68 793.87 437.31 793.87H410.07V705.17Z" fill="#416EF5"/>
<path d="M514.52 705.17H499.91V793.87H514.52V705.17Z" fill="#416EF5"/>
<path d="M585.13 757.63L570.88 724.77L556.63 757.63H585.13ZM564.63 705.17H577.38L616.12 793.87H600.88L590.77 770.64H551.04L541.05 793.87H525.93L564.67 705.17H564.65H564.63Z" fill="#416EF5"/>
<path d="M664.97 703.67C684.84 703.67 701.46 715.79 706.95 731.4H690.33C685.71 723.27 676.08 717.78 664.97 717.78C646.48 717.78 633.49 731.64 633.49 749.52C633.49 767.4 646.48 781.24 665.09 781.24C681.59 781.24 692.31 770.86 694.2 755.76H663.83V742.02H709.18C712.42 776.38 691.18 795.37 665.07 795.37C638.96 795.37 618.71 775.38 618.71 749.52C618.71 723.66 638.58 703.67 664.93 703.67H664.97Z" fill="#416EF5"/>
<path d="M790.31 793.87L740.34 730.02V793.87H725.72V705.17H738.47L788.32 768.75V705.17H803.06V793.87H790.31Z" fill="#416EF5"/>
<path d="M870.01 678.05H886.12L871.38 697.67H860.64L870 678.05H870.01ZM865.02 781.24C882.51 781.24 895.99 767.13 895.99 749.52C895.99 731.91 882.49 717.78 865.02 717.78C847.55 717.78 833.9 731.89 833.9 749.52C833.9 767.15 847.4 781.24 865.02 781.24ZM865.02 795.37C839.54 795.37 819.17 775.14 819.17 749.52C819.17 723.9 839.54 703.67 865.02 703.67C890.5 703.67 910.87 723.9 910.87 749.52C910.87 775.14 890.38 795.37 865.02 795.37Z" fill="#416EF5"/>
<path d="M935.5 768.37C936.61 777.37 944.99 781.73 953.12 781.73C961.25 781.73 967.98 777.47 967.98 770.48C967.98 764.48 964.11 760.24 955.74 757.49L944.87 753.86C930.88 749.36 923.14 741.23 923.14 728.24C923.02 712.87 934.75 703.63 951.38 703.63C969.87 703.63 979.98 716.62 980.85 728.99H966.24C964.11 720.62 957.5 717.25 951.12 717.25C943.74 717.25 937.88 721.12 937.74 727.49C937.74 733.98 941.85 737.48 949.74 740.1L960.73 743.61C974.6 748.11 982.72 756.48 982.72 769.96C982.72 784.96 970.72 795.32 953.25 795.32C933.38 795.32 921.51 782.33 920.9 768.34H935.51V768.38L935.5 768.37Z" fill="#416EF5"/>
<path d="M1014.6 719.15H988.86V705.17H1055.08V719.15H1029.21V793.87H1014.6V719.15Z" fill="#416EF5"/>
<path d="M1082.8 705.17H1068.19V793.87H1082.8V705.17Z" fill="#416EF5"/>
<path d="M1145.16 703.67C1166.53 703.67 1183.63 717.54 1187.89 734.91H1172.14C1168.39 724.8 1157.65 717.8 1145.16 717.8C1126.67 717.8 1113.68 731.66 1113.68 749.54C1113.68 767.42 1126.67 781.26 1145.16 781.26C1157.65 781.26 1168.39 774.27 1172.14 764.15H1187.89C1183.63 781.52 1166.52 795.39 1145.16 795.39C1118.81 795.39 1098.94 775.4 1098.94 749.54C1098.94 723.68 1118.81 703.69 1145.16 703.69V703.67Z" fill="#416EF5"/>
<path d="M1249.63 757.63L1235.38 724.77L1221.13 757.63H1249.63ZM1229.14 705.17H1241.89L1280.63 793.87H1265.39L1255.28 770.64H1215.55L1205.56 793.87H1190.44L1229.18 705.17H1229.16H1229.14Z" fill="#416EF5"/>
<path d="M95.13 324.47V20.55C95.13 14.53 90.24 9.64001 84.22 9.64001H10.91C4.89 9.65001 0 14.53 0 20.55V324.47C0 395.56 57.63 453.17 128.7 453.17H295.53C301.55 453.17 306.44 448.28 306.44 442.26V368.94C306.44 362.92 301.55 358.03 295.53 358.03H128.7C110.15 358.03 95.13 343.01 95.13 324.46V324.47Z" fill="black"/>
<path d="M1268.14 359.86H1080.17V277.3H1237.53V277.36C1238.36 277.36 1239.19 277.32 1240.02 277.3H1266.7C1288.55 277.3 1307.65 293.84 1309.11 315.75C1310.71 339.79 1291.72 359.86 1268.16 359.86H1268.14ZM1236.18 103.99C1256.96 103.99 1275.16 119.62 1276.76 140.44C1278.5 163.24 1260.91 182.38 1238.77 183.07H1080.17V103.97H1236.17V103.99H1236.18ZM1351.64 212.33C1364.92 190.13 1371.99 163.78 1370.39 135.71C1366.32 64.48 1305.73 9.75 1234.78 9.75L1080.2 9.63H1016.79C999.26 9.63 985.07 23.92 985.07 41.54V422.06C985.07 439.68 999.28 453.97 1016.79 453.97H1077.34V454.09H1265.61C1340.16 454.09 1402.5 394.33 1402.92 319.37C1403.16 276.01 1383.03 237.32 1351.64 212.32V212.34V212.33Z" fill="black"/>
<path d="M632.22 109.03L697.55 272.67C677.5 277.9 656.81 280.64 635.54 280.64C612.51 280.64 589.63 277.28 567.63 270.93L632.19 109.01L632.21 109.03H632.22ZM489.65 445.63L528.55 358.51C562.93 369.88 599.13 375.8 635.54 375.8C669.84 375.8 704.05 370.53 736.69 360.37L774.76 445.63C777.03 450.72 782.08 453.98 787.63 453.98H866C873.84 453.98 879.07 445.91 875.87 438.76L699.45 43.62C687.61 17.13 661.22 0 632.19 0C603.16 0 576.77 17.13 564.93 43.62L388.52 438.75C385.32 445.91 390.57 453.97 398.39 453.97H476.76C482.31 453.97 487.36 450.71 489.63 445.62H489.65V445.63Z" fill="black"/>
<path d="M1512.54 359.86H1549.53C1565.07 359.86 1577.69 372.48 1577.69 388.02V425.01C1577.69 440.55 1565.07 453.17 1549.53 453.17H1512.54C1497 453.17 1484.38 440.55 1484.38 425.01V388.02C1484.38 372.48 1497 359.86 1512.54 359.86Z" fill="#416EF5"/>
</g>
<defs>
<clipPath id="clip0_443_223">
<rect width="1577.69" height="795.4" fill="white"/>
</clipPath>
</defs>
</svg>
