<svg width="1835" height="326" viewBox="0 0 1835 326" fill="none" xmlns="http://www.w3.org/2000/svg">
<g clip-path="url(#clip0_443_249)">
<path d="M1215.39 170.19V216.29H1204.82V152.1H1214.5L1236.92 182.47L1259.44 152.1H1269.12V216.29H1258.46V170.27L1237.03 199.38L1215.43 170.19H1215.39Z" fill="#416EF5"/>
<path d="M1284.81 152.11H1323.41V162.22H1295.38V178.68H1317.98V188.79H1295.38V206.16H1323.41V216.27H1284.81V152.08V152.11Z" fill="#416EF5"/>
<path d="M1355.34 206.44C1369.08 206.44 1378.22 196.76 1378.22 184.21C1378.22 171.66 1369.08 161.98 1355.34 161.98H1346.2V206.46H1355.34V206.44ZM1335.63 152.11H1355.34C1374.42 152.11 1388.97 166.02 1388.97 184.19C1388.97 202.36 1374.43 216.27 1355.34 216.27H1335.63V152.08V152.1V152.11Z" fill="#416EF5"/>
<path d="M1411.19 152.1H1400.62V216.29H1411.19V152.1Z" fill="#416EF5"/>
<path d="M1456.32 151.02C1471.78 151.02 1484.17 161.05 1487.23 173.62H1475.83C1473.12 166.3 1465.35 161.25 1456.32 161.25C1442.95 161.25 1433.55 171.28 1433.55 184.22C1433.55 197.16 1442.95 207.19 1456.32 207.19C1465.35 207.19 1473.12 202.13 1475.83 194.82H1487.23C1484.15 207.39 1471.77 217.42 1456.32 217.42C1437.24 217.42 1422.87 202.96 1422.87 184.25C1422.87 165.54 1437.24 151.08 1456.32 151.08V151.04V151.02Z" fill="#416EF5"/>
<path d="M1508.49 152.1H1497.92V216.29H1508.49V152.1Z" fill="#416EF5"/>
<path d="M1570.96 216.29L1534.8 170.1V216.29H1524.23V152.1H1533.45L1569.53 198.12V152.1H1580.19V216.29H1570.96Z" fill="#416EF5"/>
<path d="M1631.27 190.07L1620.96 166.3L1610.65 190.07H1631.27ZM1616.44 152.1H1625.67L1653.69 216.29H1642.66L1635.34 199.47H1606.6L1599.37 216.29H1588.43L1616.45 152.1H1616.43H1616.44Z" fill="#416EF5"/>
<path d="M1224.51 314.93C1238.25 314.93 1247.39 305.25 1247.39 292.7C1247.39 280.15 1238.25 270.47 1224.51 270.47H1215.37V314.95H1224.51V314.93ZM1204.82 260.6H1224.53C1243.61 260.6 1258.16 274.51 1258.16 292.68C1258.16 310.85 1243.62 324.76 1224.53 324.76H1204.82V260.57V260.59V260.6Z" fill="#416EF5"/>
<path d="M1280.38 260.6H1269.81V324.79H1280.38V260.6Z" fill="#416EF5"/>
<path d="M1331.46 298.57L1321.15 274.8L1310.84 298.57H1331.46ZM1316.64 260.6H1325.87L1353.89 324.79H1342.86L1335.54 307.97H1306.8L1299.57 324.79H1288.63L1316.65 260.6H1316.63H1316.64Z" fill="#416EF5"/>
<path d="M1389.25 259.52C1403.62 259.52 1415.65 268.29 1419.62 279.58H1407.59C1404.25 273.7 1397.28 269.72 1389.25 269.72C1375.88 269.72 1366.48 279.75 1366.48 292.69C1366.48 305.63 1375.88 315.66 1389.36 315.66C1401.3 315.66 1409.07 308.15 1410.42 297.23H1388.45V287.29H1421.27C1423.61 312.15 1408.25 325.89 1389.36 325.89C1370.47 325.89 1355.82 311.43 1355.82 292.72C1355.82 274.01 1370.19 259.55 1389.27 259.55L1389.25 259.53V259.52Z" fill="#416EF5"/>
<path d="M1479.92 324.79L1443.76 278.59V324.79H1433.18V260.6H1442.41L1478.49 306.62V260.6H1489.15V324.79H1479.92Z" fill="#416EF5"/>
<path d="M1537.6 240.97H1549.26L1538.6 255.17H1530.83L1537.6 240.97ZM1533.97 315.65C1546.63 315.65 1556.39 305.43 1556.39 292.68C1556.39 279.93 1546.62 269.71 1533.97 269.71C1521.32 269.71 1511.46 279.93 1511.46 292.68C1511.46 305.43 1521.23 315.65 1533.97 315.65ZM1533.97 325.85C1515.52 325.85 1500.8 311.2 1500.8 292.68C1500.8 274.16 1515.54 259.51 1533.97 259.51C1552.4 259.51 1567.14 274.16 1567.14 292.68C1567.14 311.2 1552.31 325.85 1533.97 325.85Z" fill="#416EF5"/>
<path d="M1584.96 306.34C1585.76 312.85 1591.82 316.02 1597.7 316.02C1603.58 316.02 1608.45 312.94 1608.45 307.88C1608.45 303.54 1605.65 300.46 1599.59 298.48L1591.73 295.85C1581.61 292.59 1576.01 286.71 1576.01 277.31C1575.92 266.2 1584.41 259.51 1596.44 259.51C1609.81 259.51 1617.15 268.91 1617.78 277.85H1607.21C1605.67 271.79 1600.89 269.36 1596.27 269.36C1590.93 269.36 1586.7 272.16 1586.59 276.78C1586.59 281.49 1589.56 284.01 1595.27 285.92L1603.21 288.46C1613.24 291.72 1619.12 297.77 1619.12 307.54C1619.12 318.39 1610.44 325.88 1597.78 325.88C1583.41 325.88 1574.81 316.48 1574.36 306.36H1584.93L1584.95 306.32L1584.96 306.34Z" fill="#416EF5"/>
<path d="M1642.21 270.71H1623.58V260.6H1671.49V270.71H1652.78V324.77H1642.21V270.71Z" fill="#416EF5"/>
<path d="M1691.55 260.6H1680.98V324.79H1691.55V260.6Z" fill="#416EF5"/>
<path d="M1736.68 259.52C1752.14 259.52 1764.53 269.55 1767.59 282.12H1756.19C1753.48 274.8 1745.71 269.75 1736.68 269.75C1723.31 269.75 1713.91 279.78 1713.91 292.72C1713.91 305.66 1723.31 315.69 1736.68 315.69C1745.71 315.69 1753.48 310.63 1756.19 303.32H1767.59C1764.51 315.89 1752.13 325.92 1736.68 325.92C1717.6 325.92 1703.23 311.46 1703.23 292.75C1703.23 274.04 1717.6 259.58 1736.68 259.58V259.54V259.52Z" fill="#416EF5"/>
<path d="M1812.24 298.57L1801.93 274.8L1791.62 298.57H1812.24ZM1797.42 260.6H1806.65L1834.67 324.79H1823.64L1816.32 307.97H1787.58L1780.35 324.79H1769.41L1797.43 260.6H1797.41H1797.42Z" fill="#416EF5"/>
<path d="M68.05 232.07V14.72C68.05 10.4 64.56 6.90999 60.24 6.90999H7.81C3.49 6.89999 0 10.4 0 14.72V232.1C0 282.94 41.22 324.16 92.06 324.16H211.39C215.71 324.16 219.2 320.67 219.2 316.35V263.9C219.2 259.58 215.71 256.09 211.39 256.09H92.06C78.8 256.09 68.05 245.34 68.05 232.08V232.07Z" fill="black"/>
<path d="M907.03 257.41H772.59V198.37H885.14V198.41C885.75 198.41 886.33 198.37 886.92 198.37H906C921.63 198.37 935.28 210.2 936.33 225.87C937.48 243.06 923.89 257.41 907.05 257.41H907.03ZM884.17 74.39C899.04 74.39 912.06 85.57 913.19 100.46C914.45 116.76 901.86 130.46 886.01 130.96H772.57V74.39H884.17ZM966.75 151.89C976.24 136.02 981.32 117.16 980.17 97.08C977.26 46.13 933.93 6.99002 883.18 6.99002L772.6 6.90002H727.25C714.72 6.90002 704.54 17.12 704.54 29.71V301.88C704.54 314.49 714.7 324.69 727.25 324.69H770.56V324.78H905.21C958.52 324.78 1003.11 282.04 1003.44 228.42C1003.61 197.42 989.22 169.74 966.78 151.86L966.76 151.88L966.75 151.89Z" fill="black"/>
<path d="M452.19 78L498.93 195.05C484.6 198.81 469.78 200.76 454.58 200.76C438.1 200.76 421.74 198.35 406 193.81L452.17 78H452.19ZM350.23 318.73L378.06 256.41C402.65 264.55 428.53 268.78 454.58 268.78C479.11 268.78 503.6 265 526.93 257.75L554.15 318.73C555.78 322.36 559.38 324.7 563.35 324.7H619.4C625 324.7 628.76 318.93 626.46 313.8L500.3 31.19C491.83 12.24 472.95 0 452.2 0C431.45 0 412.56 12.24 404.1 31.22L277.91 313.83C275.63 318.95 279.36 324.73 284.97 324.73H341.02C344.99 324.73 348.6 322.39 350.22 318.76L350.24 318.74L350.23 318.73Z" fill="black"/>
<path d="M1108.29 257.41H1081.84C1070.72 257.41 1061.7 266.427 1061.7 277.55V304C1061.7 315.123 1070.72 324.14 1081.84 324.14H1108.29C1119.41 324.14 1128.43 315.123 1128.43 304V277.55C1128.43 266.427 1119.41 257.41 1108.29 257.41Z" fill="#416EF5"/>
</g>
<defs>
<clipPath id="clip0_443_249">
<rect width="1834.67" height="325.9" fill="white"/>
</clipPath>
</defs>
</svg>
